<svg width="40" height="40" viewBox="0 0 40 40" fill="none" xmlns="http://www.w3.org/2000/svg">
<rect x="0.5" y="0.5" width="39" height="39" rx="3.5" stroke="#1F2937"/>
<path d="M20 30.5L13.673 23.0382C13.5851 22.9262 13.4981 22.8135 13.412 22.7C12.3318 21.276 11.748 19.5373 11.75 17.75C11.75 15.562 12.6192 13.4635 14.1664 11.9164C15.7135 10.3692 17.812 9.5 20 9.5C22.188 9.5 24.2865 10.3692 25.8336 11.9164C27.3808 13.4635 28.25 15.562 28.25 17.75C28.2517 19.5365 27.6682 21.2743 26.5888 22.6978L26.588 22.7C26.588 22.7 26.363 22.9955 26.3293 23.0353L20 30.5ZM14.6098 21.7963C14.6098 21.7963 14.7845 22.0272 14.8243 22.0767L20 28.181L25.1825 22.0685C25.2155 22.0272 25.391 21.7948 25.3918 21.794C26.2747 20.6309 26.7518 19.2103 26.75 17.75C26.75 15.9598 26.0388 14.2429 24.773 12.977C23.5071 11.7112 21.7902 11 20 11C18.2098 11 16.4929 11.7112 15.227 12.977C13.9612 14.2429 13.25 15.9598 13.25 17.75C13.2482 19.2112 13.7258 20.6327 14.6098 21.7963Z" fill="#1F2937"/>
<path d="M23.75 21.5H22.25V15.5H17.75V21.5H16.25V15.5C16.25 15.1022 16.408 14.7206 16.6893 14.4393C16.9706 14.158 17.3522 14 17.75 14H22.25C22.6478 14 23.0294 14.158 23.3107 14.4393C23.592 14.7206 23.75 15.1022 23.75 15.5V21.5Z" fill="#1F2937"/>
<path d="M19.25 20H20.75V21.5H19.25V20ZM19.25 17H20.75V18.5H19.25V17Z" fill="#1F2937"/>
</svg>
