<svg width="25" height="24" viewBox="0 0 25 24" fill="none" xmlns="http://www.w3.org/2000/svg">
<path d="M12.5 18.5C10.16 18.5 8.25 16.59 8.25 14.25C8.25 13.84 8.59 13.5 9 13.5C9.41 13.5 9.75 13.84 9.75 14.25C9.75 15.77 10.98 17 12.5 17C14.02 17 15.25 15.77 15.25 14.25C15.25 13.84 15.59 13.5 16 13.5C16.41 13.5 16.75 13.84 16.75 14.25C16.75 16.59 14.84 18.5 12.5 18.5Z" fill="#FCFCFC"/>
<path d="M5.68988 6.37994C5.49988 6.37994 5.29988 6.29994 5.15988 6.15994C4.86988 5.86994 4.86988 5.38994 5.15988 5.09994L8.78988 1.46994C9.07988 1.17994 9.55988 1.17994 9.84988 1.46994C10.1399 1.75994 10.1399 2.23994 9.84988 2.52994L6.21988 6.15994C6.06988 6.29994 5.87988 6.37994 5.68988 6.37994Z" fill="#FCFCFC"/>
<path d="M19.3101 6.37994C19.1201 6.37994 18.9301 6.30994 18.7801 6.15994L15.1501 2.52994C14.8601 2.23994 14.8601 1.75994 15.1501 1.46994C15.4401 1.17994 15.9201 1.17994 16.2101 1.46994L19.8401 5.09994C20.1301 5.38994 20.1301 5.86994 19.8401 6.15994C19.7001 6.29994 19.5001 6.37994 19.3101 6.37994Z" fill="#FCFCFC"/>
<path d="M20.71 10.6001C20.64 10.6001 20.57 10.6001 20.5 10.6001H20.27H4.5C3.8 10.6101 3 10.6101 2.42 10.0301C1.96 9.5801 1.75 8.8801 1.75 7.8501C1.75 5.1001 3.76 5.1001 4.72 5.1001H20.28C21.24 5.1001 23.25 5.1001 23.25 7.8501C23.25 8.8901 23.04 9.5801 22.58 10.0301C22.06 10.5501 21.36 10.6001 20.71 10.6001ZM4.72 9.1001H20.51C20.96 9.1101 21.38 9.1101 21.52 8.9701C21.59 8.9001 21.74 8.6601 21.74 7.8501C21.74 6.7201 21.46 6.6001 20.27 6.6001H4.72C3.53 6.6001 3.25 6.7201 3.25 7.8501C3.25 8.6601 3.41 8.9001 3.47 8.9701C3.61 9.1001 4.04 9.1001 4.48 9.1001H4.72Z" fill="#FCFCFC"/>
<path d="M15.3902 22.7502H9.36024C5.78024 22.7502 4.98024 20.6202 4.67024 18.7702L3.26024 10.1202C3.19024 9.71024 3.47024 9.33024 3.88024 9.26024C4.28024 9.19024 4.67024 9.47024 4.74024 9.88024L6.15024 18.5202C6.44024 20.2902 7.04024 21.2502 9.36024 21.2502H15.3902C17.9602 21.2502 18.2502 20.3502 18.5802 18.6102L20.2602 9.86024C20.3402 9.45024 20.7302 9.18024 21.1402 9.27024C21.5502 9.35024 21.8102 9.74024 21.7302 10.1502L20.0502 18.9002C19.6602 20.9302 19.0102 22.7502 15.3902 22.7502Z" fill="#FCFCFC"/>
</svg>
