<svg width="40" height="40" viewBox="0 0 40 40" fill="none" xmlns="http://www.w3.org/2000/svg">
<rect x="0.5" y="0.5" width="39" height="39" rx="3.5" stroke="#1F2937"/>
<path d="M26 29.75H21.2922L23.39 26.0788C26.7575 24.707 29 21.3942 29 17.75C29 12.7873 24.9628 8.75 20 8.75C15.0373 8.75 11 12.7873 11 17.75C11 21.3942 13.2433 24.707 16.6093 26.078L18.707 29.75H13.9992C13.5853 29.75 13.2492 30.0853 13.2492 30.5C13.2492 30.9147 13.5853 31.25 13.9992 31.25H25.9993C26.414 31.25 26.7493 30.9147 26.7493 30.5C26.7493 30.0853 26.4148 29.75 26 29.75ZM17.3907 24.773C14.4657 23.6863 12.5 20.8632 12.5 17.75C12.5 13.6145 15.8645 10.25 20 10.25C24.1355 10.25 27.5 13.6145 27.5 17.75C27.5 20.8632 25.5343 23.6863 22.6093 24.773C22.4443 24.8345 22.307 24.9515 22.2192 25.1038L20 28.988L17.7808 25.1038C17.6938 24.9515 17.5557 24.8345 17.3907 24.773Z" fill="#1F2937"/>
<path d="M22.6252 18.5C22.6252 16.2897 20.5567 14.6098 20.469 14.5393C20.1952 14.3203 19.806 14.3203 19.5322 14.5393C19.4437 14.6098 17.376 16.2897 17.376 18.5C17.376 19.9475 18.5535 21.125 20.001 21.125C21.4485 21.125 22.6252 19.9475 22.6252 18.5ZM18.8752 18.5C18.8752 17.5445 19.53 16.6678 20.0002 16.1615C20.4705 16.6678 21.1252 17.5445 21.1252 18.5C21.1252 19.1203 20.6205 19.625 20.0002 19.625C19.38 19.625 18.8752 19.1203 18.8752 18.5Z" fill="#1F2937"/>
<path d="M26 17.75C26 14.4418 23.3082 11.75 20 11.75C16.6918 11.75 14 14.4418 14 17.75C14 21.0582 16.6918 23.75 20 23.75C23.3082 23.75 26 21.0582 26 17.75ZM15.5 17.75C15.5 15.2682 17.5182 13.25 20 13.25C22.4818 13.25 24.5 15.2682 24.5 17.75C24.5 20.2318 22.4818 22.25 20 22.25C17.5182 22.25 15.5 20.2318 15.5 17.75Z" fill="#1F2937"/>
</svg>
