<svg width="35" height="34" viewBox="0 0 35 34" fill="none" xmlns="http://www.w3.org/2000/svg">
<rect x="0.803711" width="34" height="34" rx="4" fill="#FB3748"/>
<path d="M10.3037 10.25V9.6875C10.1545 9.6875 10.0115 9.74676 9.90596 9.85225C9.80047 9.95774 9.74121 10.1008 9.74121 10.25H10.3037ZM18.5537 10.25H19.1162C19.1162 10.1008 19.0569 9.95774 18.9515 9.85225C18.846 9.74676 18.7029 9.6875 18.5537 9.6875V10.25ZM18.5537 14.75V14.1875C18.4045 14.1875 18.2615 14.2468 18.156 14.3523C18.0505 14.4577 17.9912 14.6008 17.9912 14.75H18.5537ZM10.3037 10.8125H18.5537V9.6875H10.3037V10.8125ZM17.9912 10.25V22.25H19.1162V10.25H17.9912ZM10.8662 20.75V10.25H9.74121V20.75H10.8662ZM18.5537 15.3125H22.3037V14.1875H18.5537V15.3125ZM24.7412 17.75V20.75H25.8662V17.75H24.7412ZM19.1162 22.25V14.75H17.9912V22.25H19.1162ZM22.9667 22.913C22.8797 23.0001 22.7763 23.0692 22.6625 23.1163C22.5488 23.1634 22.4268 23.1877 22.3037 23.1877C22.1806 23.1877 22.0586 23.1634 21.9449 23.1163C21.8311 23.0692 21.7278 23.0001 21.6407 22.913L20.8457 23.708C21.2325 24.0948 21.7571 24.3121 22.3041 24.3121C22.8511 24.3121 23.3757 24.0948 23.7625 23.708L22.9667 22.913ZM21.6407 21.587C21.7278 21.4999 21.8311 21.4308 21.9449 21.3837C22.0586 21.3366 22.1806 21.3123 22.3037 21.3123C22.4268 21.3123 22.5488 21.3366 22.6625 21.3837C22.7763 21.4308 22.8797 21.4999 22.9667 21.587L23.7617 20.792C23.3749 20.4052 22.8503 20.1879 22.3033 20.1879C21.7563 20.1879 21.2318 20.4052 20.845 20.792L21.6407 21.587ZM13.9667 22.913C13.8797 23.0001 13.7763 23.0692 13.6625 23.1163C13.5488 23.1634 13.4268 23.1877 13.3037 23.1877C13.1806 23.1877 13.0586 23.1634 12.9449 23.1163C12.8311 23.0692 12.7278 23.0001 12.6407 22.913L11.8457 23.708C12.2325 24.0948 12.7571 24.3121 13.3041 24.3121C13.8511 24.3121 14.3757 24.0948 14.7625 23.708L13.9667 22.913ZM12.6407 21.587C12.7278 21.4999 12.8311 21.4308 12.9449 21.3837C13.0586 21.3366 13.1806 21.3123 13.3037 21.3123C13.4268 21.3123 13.5488 21.3366 13.6625 21.3837C13.7763 21.4308 13.8797 21.4999 13.9667 21.587L14.7617 20.792C14.3749 20.4052 13.8503 20.1879 13.3033 20.1879C12.7563 20.1879 12.2318 20.4052 11.845 20.792L12.6407 21.587ZM22.9667 21.587C23.1497 21.77 23.2412 22.0092 23.2412 22.25H24.3662C24.3662 21.7227 24.1645 21.194 23.7625 20.7913L22.9667 21.587ZM23.2412 22.25C23.2412 22.4908 23.1497 22.73 22.9667 22.913L23.7625 23.708C23.9543 23.5168 24.1058 23.2896 24.2095 23.0393C24.3133 22.7891 24.3665 22.5209 24.3662 22.25H23.2412ZM20.8037 21.6875H18.5537V22.8125H20.8037V21.6875ZM21.6407 22.913C21.5533 22.8262 21.4841 22.7229 21.4369 22.609C21.3898 22.4952 21.3658 22.3732 21.3662 22.25H20.2412C20.2412 22.7773 20.443 23.306 20.845 23.7087L21.6407 22.913ZM21.3662 22.25C21.3662 22.0092 21.4577 21.77 21.6407 21.587L20.845 20.792C20.6531 20.9832 20.5016 21.2104 20.3979 21.4607C20.2942 21.7109 20.2409 21.9791 20.2412 22.25H21.3662ZM12.6407 22.913C12.5533 22.8262 12.4841 22.7229 12.4369 22.609C12.3898 22.4952 12.3658 22.3732 12.3662 22.25H11.2412C11.2412 22.7773 11.443 23.306 11.845 23.7087L12.6407 22.913ZM12.3662 22.25C12.3662 22.0092 12.4577 21.77 12.6407 21.587L11.8457 20.792C11.6538 20.9832 11.5016 21.2104 11.3979 21.4607C11.2942 21.7109 11.2409 21.9791 11.2412 22.25H12.3662ZM18.5537 21.6875H14.8037V22.8125H18.5537V21.6875ZM13.9667 21.587C14.1497 21.77 14.2412 22.0092 14.2412 22.25H15.3662C15.3662 21.7227 15.1645 21.194 14.7625 20.7913L13.9667 21.587ZM14.2412 22.25C14.2412 22.4908 14.1497 22.73 13.9667 22.913L14.7617 23.708C14.9536 23.5168 15.1058 23.2896 15.2095 23.0393C15.3133 22.7891 15.3665 22.5209 15.3662 22.25H14.2412ZM24.7412 20.75C24.7412 21.2675 24.3212 21.6875 23.8037 21.6875V22.8125C24.3507 22.8125 24.8753 22.5952 25.2621 22.2084C25.6489 21.8216 25.8662 21.297 25.8662 20.75H24.7412ZM22.3037 15.3125C22.9502 15.3125 23.5702 15.5693 24.0273 16.0264C24.4844 16.4835 24.7412 17.1035 24.7412 17.75H25.8662C25.8662 16.8052 25.4909 15.899 24.8228 15.2309C24.1547 14.5628 23.2485 14.1875 22.3037 14.1875V15.3125ZM9.74121 20.75C9.74121 21.297 9.95851 21.8216 10.3453 22.2084C10.7321 22.5952 11.2567 22.8125 11.8037 22.8125V21.6875C11.2862 21.6875 10.8662 21.2675 10.8662 20.75H9.74121Z" fill="#FCFCFC"/>
</svg>
