<svg width="25" height="24" viewBox="0 0 25 24" fill="none" xmlns="http://www.w3.org/2000/svg">
<path d="M12.75 18.5C10.41 18.5 8.5 16.59 8.5 14.25C8.5 13.84 8.84 13.5 9.25 13.5C9.66 13.5 10 13.84 10 14.25C10 15.77 11.23 17 12.75 17C14.27 17 15.5 15.77 15.5 14.25C15.5 13.84 15.84 13.5 16.25 13.5C16.66 13.5 17 13.84 17 14.25C17 16.59 15.09 18.5 12.75 18.5Z" fill="#B9B9B9"/>
<path d="M5.93988 6.37994C5.74988 6.37994 5.54988 6.29994 5.40988 6.15994C5.11988 5.86994 5.11988 5.38994 5.40988 5.09994L9.03988 1.46994C9.32988 1.17994 9.80988 1.17994 10.0999 1.46994C10.3899 1.75994 10.3899 2.23994 10.0999 2.52994L6.46988 6.15994C6.31988 6.29994 6.12988 6.37994 5.93988 6.37994Z" fill="#B9B9B9"/>
<path d="M19.5601 6.37994C19.3701 6.37994 19.1801 6.30994 19.0301 6.15994L15.4001 2.52994C15.1101 2.23994 15.1101 1.75994 15.4001 1.46994C15.6901 1.17994 16.1701 1.17994 16.4601 1.46994L20.0901 5.09994C20.3801 5.38994 20.3801 5.86994 20.0901 6.15994C19.9501 6.29994 19.7501 6.37994 19.5601 6.37994Z" fill="#B9B9B9"/>
<path d="M20.96 10.6001C20.89 10.6001 20.82 10.6001 20.75 10.6001H20.52H4.75C4.05 10.6101 3.25 10.6101 2.67 10.0301C2.21 9.5801 2 8.8801 2 7.8501C2 5.1001 4.01 5.1001 4.97 5.1001H20.53C21.49 5.1001 23.5 5.1001 23.5 7.8501C23.5 8.8901 23.29 9.5801 22.83 10.0301C22.31 10.5501 21.61 10.6001 20.96 10.6001ZM4.97 9.1001H20.76C21.21 9.1101 21.63 9.1101 21.77 8.9701C21.84 8.9001 21.99 8.6601 21.99 7.8501C21.99 6.7201 21.71 6.6001 20.52 6.6001H4.97C3.78 6.6001 3.5 6.7201 3.5 7.8501C3.5 8.6601 3.66 8.9001 3.72 8.9701C3.86 9.1001 4.29 9.1001 4.73 9.1001H4.97Z" fill="#B9B9B9"/>
<path d="M15.6402 22.7502H9.61024C6.03024 22.7502 5.23024 20.6202 4.92024 18.7702L3.51024 10.1202C3.44024 9.71024 3.72024 9.33024 4.13024 9.26024C4.53024 9.19024 4.92024 9.47024 4.99024 9.88024L6.40024 18.5202C6.69024 20.2902 7.29024 21.2502 9.61024 21.2502H15.6402C18.2102 21.2502 18.5002 20.3502 18.8302 18.6102L20.5102 9.86024C20.5902 9.45024 20.9802 9.18024 21.3902 9.27024C21.8002 9.35024 22.0602 9.74024 21.9802 10.1502L20.3002 18.9002C19.9102 20.9302 19.2602 22.7502 15.6402 22.7502Z" fill="#B9B9B9"/>
</svg>
