<svg width="40" height="40" viewBox="0 0 40 40" fill="none" xmlns="http://www.w3.org/2000/svg">
<rect x="0.5" y="0.5" width="39" height="39" rx="3.5" stroke="#1F2937"/>
<path d="M23.75 9.5C22.6959 9.49976 21.6565 9.74642 20.7149 10.2202C19.7734 10.694 18.9559 11.3818 18.328 12.2284C17.7001 13.0751 17.2792 14.057 17.0992 15.0956C16.9191 16.1341 16.9848 17.2004 17.291 18.209L9.5 26V30.5H14L21.791 22.709C22.7194 22.9908 23.6977 23.0692 24.6591 22.9387C25.6206 22.8083 26.5426 22.4721 27.3624 21.953C28.1821 21.434 28.8804 20.7444 29.4095 19.9311C29.9386 19.1178 30.2862 18.2 30.4285 17.2402C30.5709 16.2805 30.5046 15.3013 30.2343 14.3695C29.964 13.4376 29.496 12.575 28.8622 11.8404C28.2283 11.1058 27.4436 10.5165 26.5614 10.1126C25.6792 9.70872 24.7203 9.49978 23.75 9.5ZM23.75 21.5C23.2336 21.4997 22.7201 21.4234 22.226 21.2735L21.3657 21.0125L20.7305 21.6478L18.3448 24.0335L17.3105 23L16.25 24.0605L17.2842 25.0947L16.0948 26.2843L15.0605 25.25L14 26.3105L15.0342 27.3447L13.379 29H11V26.621L18.3515 19.2695L18.9875 18.6342L18.7265 17.774C18.4059 16.7172 18.4268 15.5863 18.786 14.5421C19.1453 13.4978 19.8247 12.5935 20.7275 11.9576C21.6304 11.3218 22.7108 10.9868 23.815 11.0004C24.9192 11.014 25.9911 11.3754 26.878 12.0333C27.765 12.6912 28.4219 13.612 28.7554 14.6647C29.0888 15.7175 29.0818 16.8486 28.7354 17.8971C28.3889 18.9457 27.7206 19.8583 26.8256 20.5051C25.9305 21.152 24.8543 21.5001 23.75 21.5Z" fill="#1F2937"/>
<path d="M24.5 17C25.3284 17 26 16.3284 26 15.5C26 14.6716 25.3284 14 24.5 14C23.6716 14 23 14.6716 23 15.5C23 16.3284 23.6716 17 24.5 17Z" fill="#1F2937"/>
</svg>
