<svg width="34" height="35" viewBox="0 0 34 35" fill="none" xmlns="http://www.w3.org/2000/svg">
<rect y="0.5" width="34" height="34" rx="4" fill="#8C8C8C"/>
<path d="M9.5 10.75V10.1875C9.35082 10.1875 9.20774 10.2468 9.10225 10.3523C8.99676 10.4577 8.9375 10.6008 8.9375 10.75H9.5ZM17.75 10.75H18.3125C18.3125 10.6008 18.2532 10.4577 18.1477 10.3523C18.0423 10.2468 17.8992 10.1875 17.75 10.1875V10.75ZM17.75 15.25V14.6875C17.6008 14.6875 17.4577 14.7468 17.3523 14.8523C17.2468 14.9577 17.1875 15.1008 17.1875 15.25H17.75ZM9.5 11.3125H17.75V10.1875H9.5V11.3125ZM17.1875 10.75V22.75H18.3125V10.75H17.1875ZM10.0625 21.25V10.75H8.9375V21.25H10.0625ZM17.75 15.8125H21.5V14.6875H17.75V15.8125ZM23.9375 18.25V21.25H25.0625V18.25H23.9375ZM18.3125 22.75V15.25H17.1875V22.75H18.3125ZM22.163 23.413C22.0759 23.5001 21.9726 23.5692 21.8588 23.6163C21.7451 23.6634 21.6231 23.6877 21.5 23.6877C21.3769 23.6877 21.2549 23.6634 21.1412 23.6163C21.0274 23.5692 20.9241 23.5001 20.837 23.413L20.042 24.208C20.4288 24.5948 20.9534 24.8121 21.5004 24.8121C22.0474 24.8121 22.572 24.5948 22.9587 24.208L22.163 23.413ZM20.837 22.087C20.9241 21.9999 21.0274 21.9308 21.1412 21.8837C21.2549 21.8366 21.3769 21.8123 21.5 21.8123C21.6231 21.8123 21.7451 21.8366 21.8588 21.8837C21.9726 21.9308 22.0759 21.9999 22.163 22.087L22.958 21.292C22.5712 20.9052 22.0466 20.6879 21.4996 20.6879C20.9526 20.6879 20.428 20.9052 20.0413 21.292L20.837 22.087ZM13.163 23.413C13.0759 23.5001 12.9726 23.5692 12.8588 23.6163C12.7451 23.6634 12.6231 23.6877 12.5 23.6877C12.3769 23.6877 12.2549 23.6634 12.1412 23.6163C12.0274 23.5692 11.9241 23.5001 11.837 23.413L11.042 24.208C11.4288 24.5948 11.9534 24.8121 12.5004 24.8121C13.0474 24.8121 13.572 24.5948 13.9588 24.208L13.163 23.413ZM11.837 22.087C11.9241 21.9999 12.0274 21.9308 12.1412 21.8837C12.2549 21.8366 12.3769 21.8123 12.5 21.8123C12.6231 21.8123 12.7451 21.8366 12.8588 21.8837C12.9726 21.9308 13.0759 21.9999 13.163 22.087L13.958 21.292C13.5712 20.9052 13.0466 20.6879 12.4996 20.6879C11.9526 20.6879 11.428 20.9052 11.0412 21.292L11.837 22.087ZM22.163 22.087C22.346 22.27 22.4375 22.5092 22.4375 22.75H23.5625C23.5625 22.2227 23.3608 21.694 22.9587 21.2913L22.163 22.087ZM22.4375 22.75C22.4375 22.9908 22.346 23.23 22.163 23.413L22.9587 24.208C23.1506 24.0168 23.3021 23.7896 23.4058 23.5393C23.5096 23.2891 23.5628 23.0209 23.5625 22.75H22.4375ZM20 22.1875H17.75V23.3125H20V22.1875ZM20.837 23.413C20.7496 23.3262 20.6804 23.2229 20.6332 23.109C20.5861 22.9952 20.5621 22.8732 20.5625 22.75H19.4375C19.4375 23.2773 19.6392 23.806 20.0413 24.2087L20.837 23.413ZM20.5625 22.75C20.5625 22.5092 20.654 22.27 20.837 22.087L20.0413 21.292C19.8494 21.4832 19.6979 21.7104 19.5942 21.9607C19.4904 22.2109 19.4372 22.4791 19.4375 22.75H20.5625ZM11.837 23.413C11.7496 23.3262 11.6804 23.2229 11.6332 23.109C11.5861 22.9952 11.5621 22.8732 11.5625 22.75H10.4375C10.4375 23.2773 10.6392 23.806 11.0412 24.2087L11.837 23.413ZM11.5625 22.75C11.5625 22.5092 11.654 22.27 11.837 22.087L11.042 21.292C10.8501 21.4832 10.6979 21.7104 10.5942 21.9607C10.4904 22.2109 10.4372 22.4791 10.4375 22.75H11.5625ZM17.75 22.1875H14V23.3125H17.75V22.1875ZM13.163 22.087C13.346 22.27 13.4375 22.5092 13.4375 22.75H14.5625C14.5625 22.2227 14.3608 21.694 13.9588 21.2913L13.163 22.087ZM13.4375 22.75C13.4375 22.9908 13.346 23.23 13.163 23.413L13.958 24.208C14.1499 24.0168 14.3021 23.7896 14.4058 23.5393C14.5096 23.2891 14.5628 23.0209 14.5625 22.75H13.4375ZM23.9375 21.25C23.9375 21.7675 23.5175 22.1875 23 22.1875V23.3125C23.547 23.3125 24.0716 23.0952 24.4584 22.7084C24.8452 22.3216 25.0625 21.797 25.0625 21.25H23.9375ZM21.5 15.8125C22.1465 15.8125 22.7665 16.0693 23.2236 16.5264C23.6807 16.9835 23.9375 17.6035 23.9375 18.25H25.0625C25.0625 17.3052 24.6872 16.399 24.0191 15.7309C23.351 15.0628 22.4448 14.6875 21.5 14.6875V15.8125ZM8.9375 21.25C8.9375 21.797 9.1548 22.3216 9.54159 22.7084C9.92839 23.0952 10.453 23.3125 11 23.3125V22.1875C10.4825 22.1875 10.0625 21.7675 10.0625 21.25H8.9375Z" fill="#FCFCFC"/>
</svg>
