<svg width="34" height="34" viewBox="0 0 34 34" fill="none" xmlns="http://www.w3.org/2000/svg">
<rect width="34" height="34" rx="4" fill="#84EBB4"/>
<path d="M15.5 20.375L17.75 21.125C17.75 21.125 23.375 20 24.125 20C24.875 20 24.875 20.75 24.125 21.5C23.375 22.25 20.75 24.5 18.5 24.5C16.25 24.5 14.75 23.375 13.25 23.375H9.5" stroke="#FCFCFC" stroke-width="1.5" stroke-linecap="round" stroke-linejoin="round"/>
<path d="M9.5 18.875C10.25 18.125 11.75 17 13.25 17C14.75 17 18.3125 18.5 18.875 19.25C19.4375 20 17.75 21.125 17.75 21.125M14 14.75V11.75C14 11.5511 14.079 11.3603 14.2197 11.2197C14.3603 11.079 14.5511 11 14.75 11H23.75C23.9489 11 24.1397 11.079 24.2803 11.2197C24.421 11.3603 24.5 11.5511 24.5 11.75V17.75" stroke="#FCFCFC" stroke-width="1.5" stroke-linecap="round" stroke-linejoin="round"/>
<path d="M17.375 11H21.125V14.375H17.375V11Z" fill="#FCFCFC" stroke="#FCFCFC" stroke-width="1.5" stroke-linecap="round" stroke-linejoin="round"/>
</svg>
