<svg width="40" height="40" viewBox="0 0 40 40" fill="none" xmlns="http://www.w3.org/2000/svg">
<rect x="0.5" y="0.5" width="39" height="39" rx="3.5" stroke="#1FC16B"/>
<path d="M17.5 11H22.5C22.8978 11 23.2794 11.158 23.5607 11.4393C23.842 11.7206 24 12.1022 24 12.5C24 13.4283 23.6313 14.3185 22.9749 14.9749C22.3185 15.6313 21.4283 16 20.5 16H19.5C18.5717 16 17.6815 15.6313 17.0251 14.9749C16.3687 14.3185 16 13.4283 16 12.5C16 12.1022 16.158 11.7206 16.4393 11.4393C16.7206 11.158 17.1022 11 17.5 11Z" stroke="#1FC16B" stroke-width="2" stroke-linecap="round" stroke-linejoin="round"/>
<path d="M20.5 28.9999H16C14.9391 28.9999 13.9217 28.5784 13.1716 27.8283C12.4214 27.0782 12 26.0607 12 24.9999V23.9999C11.9994 22.2374 12.5808 20.524 13.654 19.1259C14.7271 17.7279 16.2319 16.7233 17.9347 16.2683C19.6374 15.8133 21.4427 15.9333 23.0703 16.6097C24.6978 17.2861 26.0564 18.481 26.935 20.0089M24 26.9999H30M27 23.9999V29.9999" stroke="#1FC16B" stroke-width="2" stroke-linecap="round" stroke-linejoin="round"/>
</svg>
