<svg width="20" height="21" viewBox="0 0 20 21" fill="none" xmlns="http://www.w3.org/2000/svg">
<g clip-path="url(#clip0_352_4614)">
<path d="M19.2305 10.9047L11.4711 3.14532C11.3264 2.9997 11.1543 2.88424 10.9647 2.80565C10.775 2.72707 10.5717 2.68691 10.3664 2.68751H3.12501C2.87637 2.68751 2.63791 2.78628 2.46209 2.96209C2.28628 3.13791 2.18751 3.37637 2.18751 3.62501V10.8664C2.18691 11.0717 2.22707 11.275 2.30565 11.4647C2.38424 11.6543 2.4997 11.8264 2.64532 11.9711L10.4047 19.7305C10.6977 20.0234 11.0951 20.188 11.5094 20.188C11.9237 20.188 12.3211 20.0234 12.6141 19.7305L19.2305 13.1141C19.5234 12.8211 19.688 12.4237 19.688 12.0094C19.688 11.5951 19.5234 11.1977 19.2305 10.9047ZM11.5094 18.1836L4.06251 10.7344V4.56251H10.2344L17.6813 12.0094L11.5094 18.1836ZM7.81251 7.06251C7.81251 7.30973 7.7392 7.55141 7.60184 7.75697C7.46449 7.96253 7.26927 8.12275 7.04086 8.21736C6.81245 8.31197 6.56112 8.33672 6.31864 8.28849C6.07617 8.24026 5.85344 8.12121 5.67862 7.94639C5.50381 7.77157 5.38476 7.54885 5.33652 7.30637C5.28829 7.06389 5.31305 6.81256 5.40766 6.58415C5.50227 6.35574 5.66248 6.16052 5.86804 6.02317C6.07361 5.88582 6.31528 5.81251 6.56251 5.81251C6.89403 5.81251 7.21197 5.9442 7.44639 6.17862C7.68081 6.41304 7.81251 6.73099 7.81251 7.06251Z" fill="#8C8C8C"/>
</g>
<defs>
<clipPath id="clip0_352_4614">
<rect width="20" height="20" fill="white" transform="translate(0 0.5)"/>
</clipPath>
</defs>
</svg>
