<svg width="24" height="24" viewBox="0 0 24 24" fill="none" xmlns="http://www.w3.org/2000/svg">
<path d="M2.5798 19.0103L2.5598 19.0303C2.2898 18.4403 2.1198 17.7703 2.0498 17.0303C2.1198 17.7603 2.3098 18.4203 2.5798 19.0103Z" fill="#8C8C8C"/>
<path d="M9.00012 10.3801C10.3146 10.3801 11.3801 9.31456 11.3801 8.00012C11.3801 6.68568 10.3146 5.62012 9.00012 5.62012C7.68568 5.62012 6.62012 6.68568 6.62012 8.00012C6.62012 9.31456 7.68568 10.3801 9.00012 10.3801Z" fill="#8C8C8C"/>
<path d="M16.1895 2H7.80951C4.16951 2 1.99951 4.17 1.99951 7.81V16.19C1.99951 17.28 2.18951 18.23 2.55951 19.03C3.41951 20.93 5.25951 22 7.80951 22H16.1895C19.8295 22 21.9995 19.83 21.9995 16.19V13.9V7.81C21.9995 4.17 19.8295 2 16.1895 2ZM20.3695 12.5C19.5895 11.83 18.3295 11.83 17.5495 12.5L13.3895 16.07C12.6095 16.74 11.3495 16.74 10.5695 16.07L10.2295 15.79C9.51951 15.17 8.38951 15.11 7.58951 15.65L3.84951 18.16C3.62951 17.6 3.49951 16.95 3.49951 16.19V7.81C3.49951 4.99 4.98951 3.5 7.80951 3.5H16.1895C19.0095 3.5 20.4995 4.99 20.4995 7.81V12.61L20.3695 12.5Z" fill="#8C8C8C"/>
</svg>
