<svg width="140" height="139" viewBox="0 0 140 139" fill="none" xmlns="http://www.w3.org/2000/svg">
<rect x="0.5" width="139" height="139" rx="69.5" fill="#1FC16B" fill-opacity="0.1"/>
<rect x="12.5" y="12" width="115" height="115" rx="57.5" fill="#84EBB4"/>
<path d="M70 111.167C93.0119 111.167 111.667 92.5118 111.667 69.4999C111.667 46.4881 93.0119 27.8333 70 27.8333C46.9882 27.8333 28.3334 46.4881 28.3334 69.4999C28.3334 92.5118 46.9882 111.167 70 111.167Z" fill="#84EBB4"/>
<path d="M51.25 69.4999L63.75 81.9999L88.75 56.9999M111.667 69.4999C111.667 92.5118 93.0119 111.167 70 111.167C46.9882 111.167 28.3334 92.5118 28.3334 69.4999C28.3334 46.4881 46.9882 27.8333 70 27.8333C93.0119 27.8333 111.667 46.4881 111.667 69.4999Z" stroke="#FCFCFC" stroke-width="2" stroke-linecap="round" stroke-linejoin="round"/>
</svg>
