<svg width="40" height="40" viewBox="0 0 40 40" fill="none" xmlns="http://www.w3.org/2000/svg">
<rect x="0.5" y="0.5" width="39" height="39" rx="3.5" stroke="#1F2937"/>
<path d="M20.87 23.07L18.33 20.56L18.36 20.53C20.0541 18.6471 21.3199 16.4193 22.07 14H25V12H18V10H16V12H9V14H20.17C19.5 15.92 18.44 17.75 17 19.35C16.07 18.32 15.3 17.19 14.69 16H12.69C13.42 17.63 14.42 19.17 15.67 20.56L10.58 25.58L12 27L17 22L20.11 25.11L20.87 23.07ZM26.5 18H24.5L20 30H22L23.12 27H27.87L29 30H31L26.5 18ZM23.88 25L25.5 20.67L27.12 25H23.88Z" fill="#1F2937"/>
</svg>
