<svg width="40" height="40" viewBox="0 0 40 40" fill="none" xmlns="http://www.w3.org/2000/svg">
    <!-- Border Rectangle -->
    <rect x="0.5" y="0.5" width="39" height="39" rx="3.5" stroke="#FB3748" stroke-width="1"/>

    <!-- Main Shape -->
    <path fill="#FB3748" d="M27 11C28.1 11 29 11.9 29 13V27C29 28.1 28.1 29 27 29H13C11.9 29 11 28.1 11 27V24C11 23.45 11.45 23 12 23C12.55 23 13 23.45 13 24V26C13 26.55 13.45 27 14 27H26C26.55 27 27 26.55 27 26V14C27 13.45 26.55 13 26 13H14C13.45 13 13 13.45 13 14V16C13 16.55 12.55 17 12 17C11.45 17 11 16.55 11 16V13C11 11.9 11.89 11 13 11H27ZM19.5 15.41C19.76 15.41 20.01 15.51 20.2 15.7L23.79 19.29C24.18 19.68 24.18 20.31 23.79 20.7L20.2 24.29C19.81 24.68 19.18 24.68 18.79 24.29C18.41 23.91 18.4 23.27 18.79 22.88L20.67 21H12C11.45 21 11 20.55 11 20C11 19.45 11.45 19 12 19H20.67L18.79 17.11C18.4 16.72 18.4 16.09 18.79 15.7C18.98 15.51 19.23 15.41 19.5 15.41Z"/>
</svg>