<svg width="40" height="40" viewBox="0 0 40 40" fill="none" xmlns="http://www.w3.org/2000/svg">
<rect x="0.5" y="0.5" width="39" height="39" rx="3.5" stroke="#1F2937"/>
<path d="M14 22H17.05L22.05 17C22.2 16.85 22.3127 16.679 22.388 16.487C22.4633 16.295 22.5007 16.1077 22.5 15.925C22.4993 15.7423 22.4577 15.5633 22.375 15.388C22.2923 15.2127 22.184 15.05 22.05 14.9L21.15 13.95C21 13.8 20.8333 13.6877 20.65 13.613C20.4667 13.5383 20.275 13.5007 20.075 13.5C19.8917 13.5 19.7043 13.5377 19.513 13.613C19.3217 13.6883 19.1507 13.8007 19 13.95L14 18.95V22ZM15.5 20.5V19.55L18.025 17.025L18.525 17.475L18.975 17.975L16.45 20.5H15.5ZM18.525 17.475L18.975 17.975L18.025 17.025L18.525 17.475ZM19.175 22H26V20H21.175L19.175 22ZM10 30V12C10 11.45 10.196 10.9793 10.588 10.588C10.98 10.1967 11.4507 10.0007 12 10H28C28.55 10 29.021 10.196 29.413 10.588C29.805 10.98 30.0007 11.4507 30 12V24C30 24.55 29.8043 25.021 29.413 25.413C29.0217 25.805 28.5507 26.0007 28 26H14L10 30ZM13.15 24H28V12H12V25.125L13.15 24Z" fill="#1F2937"/>
</svg>
