<svg width="25" height="24" viewBox="0 0 25 24" fill="none" xmlns="http://www.w3.org/2000/svg">
<g clip-path="url(#clip0_705_46)">
<path d="M10.75 6V7.5H6.25V6H10.75ZM6.25 10.5V9H10.75V10.5H6.25ZM6.25 13.5V12H9.25V13.5H6.25ZM4.75 6V7.5H3.25V6H4.75ZM4.75 9V10.5H3.25V9H4.75ZM3.25 13.5V12H4.75V13.5H3.25ZM1.75 1.5V22.5H9.25V24H0.25V0H13.3164L19.75 6.43359V9H18.25V7.5H12.25V1.5H1.75ZM13.75 2.56641V6H17.1836L13.75 2.56641ZM21.25 12H24.25V24H10.75V12H13.75V10.5H15.25V12H19.75V10.5H21.25V12ZM22.75 22.5V16.5H12.25V22.5H22.75ZM22.75 15V13.5H12.25V15H22.75Z" fill="#8C8C8C"/>
</g>
<defs>
<clipPath id="clip0_705_46">
<rect width="24" height="24" fill="white" transform="translate(0.25)"/>
</clipPath>
</defs>
</svg>
