<svg width="34" height="34" viewBox="0 0 34 34" fill="none" xmlns="http://www.w3.org/2000/svg">
<rect width="34" height="34" rx="4" fill="#1F2937"/>
<path d="M10.9998 16.7939C10.9998 16.5092 11.2114 16.2738 11.4859 16.2366L11.5623 16.2314L22.8123 16.2314C23.1229 16.2314 23.3748 16.4833 23.3748 16.7939C23.3748 17.0787 23.1631 17.3141 22.8886 17.3513L22.8123 17.3564L11.5623 17.3564C11.2516 17.3564 10.9998 17.1046 10.9998 16.7939Z" fill="#FCFCFC"/>
<path d="M17.8783 12.6744C17.6581 12.4552 17.6573 12.099 17.8765 11.8789C18.0758 11.6787 18.3883 11.6599 18.6088 11.8228L18.672 11.8771L23.2095 16.3951C23.4103 16.595 23.4285 16.9086 23.2643 17.1292L23.2096 17.1923L18.6721 21.7111C18.4519 21.9303 18.0958 21.9295 17.8766 21.7094C17.6773 21.5093 17.6598 21.1968 17.8236 20.9769L17.8782 20.9139L22.0152 16.7935L17.8783 12.6744Z" fill="#FCFCFC"/>
</svg>
