<svg width="34" height="34" viewBox="0 0 34 34" fill="none" xmlns="http://www.w3.org/2000/svg">
<rect width="34" height="34" rx="4" fill="#84EBB4"/>
<path d="M17 9.5C21.1423 9.5 24.5 12.8578 24.5 17C24.5 21.1423 21.1423 24.5 17 24.5C12.8578 24.5 9.5 21.1423 9.5 17C9.5 12.8578 12.8578 9.5 17 9.5ZM17 11C15.4087 11 13.8826 11.6321 12.7574 12.7574C11.6321 13.8826 11 15.4087 11 17C11 18.5913 11.6321 20.1174 12.7574 21.2426C13.8826 22.3679 15.4087 23 17 23C18.5913 23 20.1174 22.3679 21.2426 21.2426C22.3679 20.1174 23 18.5913 23 17C23 15.4087 22.3679 13.8826 21.2426 12.7574C20.1174 11.6321 18.5913 11 17 11ZM17 12.5C17.1837 12.5 17.361 12.5675 17.4983 12.6895C17.6356 12.8116 17.7233 12.9798 17.7448 13.1623L17.75 13.25V16.6895L19.7802 18.7198C19.9148 18.8547 19.9929 19.0358 19.9987 19.2263C20.0045 19.4167 19.9376 19.6023 19.8116 19.7452C19.6855 19.8881 19.5098 19.9777 19.3201 19.9958C19.1305 20.0139 18.941 19.9591 18.7902 19.8425L18.7198 19.7802L16.4698 17.5302C16.3532 17.4136 16.2783 17.2618 16.2568 17.0982L16.25 17V13.25C16.25 13.0511 16.329 12.8603 16.4697 12.7197C16.6103 12.579 16.8011 12.5 17 12.5Z" fill="#FCFCFC"/>
</svg>
