<svg width="16" height="16" viewBox="0 0 16 16" fill="none" xmlns="http://www.w3.org/2000/svg">
<path opacity="0.4" d="M8.65103 2.07558L10.1353 5.05843C10.2447 5.27454 10.4534 5.42462 10.6941 5.45797L14.0282 5.94355C14.2229 5.97089 14.3996 6.07361 14.519 6.23036C14.637 6.3851 14.6877 6.5812 14.659 6.77397C14.6356 6.93405 14.5603 7.08213 14.4449 7.19552L12.0291 9.53737C11.8524 9.70079 11.7724 9.94291 11.815 10.1797L12.4098 13.472C12.4732 13.8696 12.2098 14.2444 11.815 14.3198C11.6523 14.3458 11.4856 14.3185 11.3389 14.2438L8.36497 12.6943C8.14426 12.5829 7.88353 12.5829 7.66282 12.6943L4.68885 14.2438C4.32343 14.4379 3.87067 14.3058 3.66729 13.9456C3.59194 13.8022 3.56527 13.6388 3.58994 13.4794L4.18474 10.1864C4.22741 9.95025 4.14673 9.70679 3.97069 9.54338L1.55484 7.20285C1.26745 6.92538 1.25878 6.46848 1.5355 6.181C1.5415 6.175 1.54817 6.16833 1.55484 6.16166C1.66953 6.04493 1.82023 5.97089 1.98293 5.95155L5.31698 5.4653C5.55703 5.43129 5.76574 5.28254 5.87577 5.0651L7.30674 2.07558C7.4341 1.81945 7.69816 1.66004 7.98489 1.66671H8.07424C8.32296 1.69672 8.53967 1.8508 8.65103 2.07558Z" fill="url(#paint0_linear_512_3330)"/>
<path d="M7.99484 12.6112C7.8657 12.6153 7.7399 12.6499 7.62674 12.712L4.66731 14.2579C4.3052 14.4307 3.87187 14.2966 3.66885 13.9503C3.59363 13.8089 3.56634 13.6468 3.59164 13.488L4.18272 10.2019C4.22266 9.96308 4.14279 9.72021 3.96905 9.55207L1.55212 7.21215C1.26523 6.93126 1.25991 6.47021 1.54081 6.18264C1.5448 6.17864 1.54813 6.1753 1.55212 6.17197C1.66661 6.05854 1.81438 5.98381 1.97347 5.96046L5.31032 5.46939C5.55194 5.4387 5.76162 5.28791 5.86812 5.06906L7.31855 2.04192C7.45634 1.79772 7.72059 1.65226 8.00016 1.66761C7.99484 1.86577 7.99484 12.4765 7.99484 12.6112Z" fill="url(#paint1_linear_512_3330)"/>
<defs>
<linearGradient id="paint0_linear_512_3330" x1="14.6668" y1="14.3332" x2="-1.06683" y2="9.53124" gradientUnits="userSpaceOnUse">
<stop stop-color="#FB9400"/>
<stop offset="1" stop-color="#FFAB38"/>
</linearGradient>
<linearGradient id="paint1_linear_512_3330" x1="8.00016" y1="14.3332" x2="-0.403742" y2="13.0507" gradientUnits="userSpaceOnUse">
<stop stop-color="#FB9400"/>
<stop offset="1" stop-color="#FFAB38"/>
</linearGradient>
</defs>
</svg>
