<svg width="140" height="139" viewBox="0 0 140 139" fill="none" xmlns="http://www.w3.org/2000/svg">
<rect x="0.5" width="139" height="139" rx="69.5" fill="#FB3748" fill-opacity="0.1"/>
<rect x="12.5" y="12" width="115" height="115" rx="57.5" fill="#FB3748"/>
<path d="M69.9997 84.9922C70.6062 84.9922 71.1143 84.7873 71.524 84.3776C71.9314 83.9679 72.1351 83.4598 72.1351 82.8534C72.1351 82.2492 71.9302 81.7423 71.5205 81.3326C71.1108 80.9229 70.6039 80.7169 69.9997 80.7146C69.3956 80.7122 68.8887 80.9171 68.479 81.3291C68.0693 81.7411 67.8644 82.2481 67.8644 82.8499C67.8644 83.4517 68.0693 83.9598 68.479 84.3741C68.8887 84.7885 69.3956 84.9968 69.9997 84.9922ZM68.2637 73.503H71.7358V52.6705H68.2637V73.503ZM70.0101 100.748C65.6909 100.748 61.6285 99.9291 57.8231 98.2902C54.02 96.6491 50.7111 94.4223 47.8964 91.61C45.0817 88.7976 42.8538 85.4921 41.2127 81.6937C39.5715 77.8952 38.751 73.834 38.751 69.5101C38.751 65.1862 39.5715 61.1239 41.2127 57.3231C42.8515 53.52 45.0748 50.2111 47.8826 47.3964C50.6903 44.5817 53.9969 42.3538 57.8023 40.7127C61.6077 39.0715 65.67 38.251 69.9893 38.251C74.3086 38.251 78.3709 39.0715 82.1763 40.7127C85.9794 42.3515 89.2883 44.576 92.103 47.386C94.9177 50.1961 97.1456 53.5027 98.7868 57.3058C100.428 61.1089 101.248 65.17 101.248 69.4893C101.248 73.8086 100.429 77.8709 98.7902 81.6763C97.1514 85.4817 94.9247 88.7906 92.11 91.603C89.2952 94.4154 85.9898 96.6433 82.1937 98.2868C78.3975 99.9302 74.3364 100.751 70.0101 100.748ZM69.9997 97.2764C77.754 97.2764 84.3221 94.5855 89.7038 89.2038C95.0855 83.8221 97.7764 77.254 97.7764 69.4997C97.7764 61.7454 95.0855 55.1774 89.7038 49.7957C84.3221 44.4139 77.754 41.7231 69.9997 41.7231C62.2454 41.7231 55.6774 44.4139 50.2957 49.7957C44.9139 55.1774 42.2231 61.7454 42.2231 69.4997C42.2231 77.254 44.9139 83.8221 50.2957 89.2038C55.6774 94.5855 62.2454 97.2764 69.9997 97.2764Z" fill="#FCFCFC"/>
</svg>
