<svg width="40" height="40" viewBox="0 0 40 40" fill="none" xmlns="http://www.w3.org/2000/svg">
<rect x="0.5" y="0.5" width="39" height="39" rx="3.5" stroke="#1F2937"/>
<path d="M18.5001 9.5C16.9387 9.49947 15.404 9.90519 14.0468 10.6773C12.6896 11.4494 11.5567 12.5613 10.7592 13.9037C9.96182 15.2461 9.52738 16.773 9.4986 18.3341C9.46982 19.8953 9.8477 21.4371 10.5951 22.808L9.5301 26.543C9.49263 26.6742 9.49163 26.813 9.52721 26.9447C9.5628 27.0764 9.63362 27.1959 9.73205 27.2903C9.83049 27.3847 9.95281 27.4505 10.0859 27.4806C10.2189 27.5107 10.3576 27.5039 10.4871 27.461L13.9941 26.2925C14.6961 26.699 15.4581 27.0125 16.2636 27.2195C16.0013 26.6536 15.8041 26.0598 15.6756 25.4495C15.2622 25.2813 14.8646 25.0764 14.4876 24.8375C14.3936 24.7779 14.2874 24.7399 14.1769 24.7265C14.0664 24.713 13.9542 24.7243 13.8486 24.7595L11.3616 25.589L12.1266 22.9175C12.1545 22.8191 12.1619 22.7161 12.1485 22.6147C12.1351 22.5133 12.1011 22.4158 12.0486 22.328C11.5255 21.4404 11.1909 20.4546 11.0656 19.432C10.9403 18.4095 11.027 17.372 11.3204 16.3844C11.6137 15.3968 12.1074 14.4803 12.7706 13.6919C13.4338 12.9035 14.2523 12.2602 15.1751 11.8021C16.0979 11.344 17.1051 11.081 18.1341 11.0294C19.163 10.9777 20.1916 11.1386 21.1556 11.5021C22.1196 11.8655 22.9984 12.4236 23.7372 13.1416C24.4759 13.8597 25.0589 14.7222 25.4496 15.6755C26.0599 15.804 26.6537 16.0012 27.2196 16.2635C26.7231 14.3282 25.5968 12.6132 24.0181 11.3886C22.4394 10.164 20.4981 9.4996 18.5001 9.5ZM30.5001 23.75C30.5001 24.6364 30.3255 25.5142 29.9863 26.3331C29.6471 27.1521 29.1499 27.8962 28.5231 28.523C27.8963 29.1498 27.1522 29.647 26.3332 29.9862C25.5143 30.3254 24.6365 30.5 23.7501 30.5C22.8637 30.5 21.9859 30.3254 21.167 29.9862C20.348 29.647 19.6039 29.1498 18.9771 28.523C18.3503 27.8962 17.8531 27.1521 17.5139 26.3331C17.1747 25.5142 17.0001 24.6364 17.0001 23.75C17.0001 21.9598 17.7113 20.2429 18.9771 18.977C20.243 17.7112 21.9599 17 23.7501 17C25.5403 17 27.2572 17.7112 28.5231 18.977C29.7889 20.2429 30.5001 21.9598 30.5001 23.75ZM22.4061 19.844C22.3364 19.7742 22.2537 19.7187 22.1626 19.6809C22.0714 19.6431 21.9738 19.6237 21.8751 19.6237C21.7765 19.6237 21.6788 19.6431 21.5877 19.6809C21.4965 19.7187 21.4138 19.7742 21.3441 19.844L18.7191 22.469C18.579 22.6091 18.5001 22.799 18.4995 22.9971C18.4989 23.1953 18.5768 23.3856 18.7161 23.5265L21.3441 26.156C21.4849 26.2968 21.6759 26.3759 21.8751 26.3759C22.0743 26.3759 22.2653 26.2968 22.4061 26.156C22.5469 26.0152 22.626 25.8242 22.626 25.625C22.626 25.4258 22.5469 25.2348 22.4061 25.094L21.0606 23.75H23.3751C24.8241 23.75 26.0001 24.926 26.0001 26.375V26.75C26.0001 26.9489 26.0791 27.1397 26.2198 27.2803C26.3604 27.421 26.5512 27.5 26.7501 27.5C26.949 27.5 27.1398 27.421 27.2804 27.2803C27.4211 27.1397 27.5001 26.9489 27.5001 26.75V26.375C27.5001 25.281 27.0655 24.2318 26.2919 23.4582C25.5183 22.6846 24.4691 22.25 23.3751 22.25H21.0606L22.4061 20.906C22.4759 20.8363 22.5314 20.7536 22.5692 20.6625C22.607 20.5713 22.6264 20.4737 22.6264 20.375C22.6264 20.2764 22.607 20.1787 22.5692 20.0876C22.5314 19.9964 22.4759 19.9137 22.4061 19.844Z" fill="#1F2937"/>
</svg>
