<svg width="40" height="40" viewBox="0 0 40 40" fill="none" xmlns="http://www.w3.org/2000/svg">
<rect x="0.5" y="0.5" width="39" height="39" rx="3.5" stroke="#1F2937"/>
<path fill-rule="evenodd" clip-rule="evenodd" d="M20 10C14.4772 10 10 14.4771 10 20C10 25.5228 14.4772 30 20 30C25.5229 30 30 25.5228 30 20C30 14.4771 25.5229 10 20 10ZM20 28C15.5888 28 12 24.4112 12 20C12 15.5888 15.5888 12 20 12C24.4113 12 28 15.5888 28 20C28 24.4112 24.4113 28 20 28ZM21.2522 16C21.2522 16.7251 20.7243 17.25 20.0102 17.25C19.2671 17.25 18.7522 16.725 18.7522 15.9861C18.7522 15.276 19.2811 14.75 20.0102 14.75C20.7243 14.75 21.2522 15.276 21.2522 16ZM19.0022 19H21.0022V25H19.0022V19Z" fill="#1F2937"/>
</svg>
