<svg width="40" height="40" viewBox="0 0 40 40" fill="none" xmlns="http://www.w3.org/2000/svg">
<path d="M8.85336 26.4564L24.6965 34.3977C35.364 39.7183 39.7232 35.3591 34.3895 24.7048L32.0321 20.0032L34.3895 15.3016C39.7233 4.6473 35.3509 0.274937 24.6966 5.60869L8.85336 13.5237C1.75486 17.0927 1.7417 22.9006 8.85336 26.4564ZM15.5173 18.9497L25.5526 18.9233C25.9477 18.9233 26.2902 19.0813 26.5404 19.3316C26.7906 19.5818 26.9486 19.9242 26.9486 20.3193C26.9486 21.0831 26.3165 21.7153 25.5526 21.7153L15.5173 21.7417C14.7534 21.7417 14.1213 21.1095 14.1213 20.3457C14.1213 19.5818 14.7534 18.9497 15.5173 18.9497Z" fill="#10B981"/>
</svg>
