<svg width="25" height="24" viewBox="0 0 25 24" fill="none" xmlns="http://www.w3.org/2000/svg">
<path d="M20.6499 12.6599C20.4896 12.4774 20.4012 12.2428 20.4012 11.9999C20.4012 11.757 20.4896 11.5224 20.6499 11.3399L21.9299 9.89989C22.0709 9.74256 22.1585 9.5446 22.1801 9.3344C22.2016 9.12421 22.1561 8.91258 22.0499 8.72989L20.0499 5.2699C19.9448 5.08742 19.7848 4.94277 19.5926 4.85658C19.4005 4.77039 19.1861 4.74705 18.9799 4.7899L17.0999 5.1699C16.8607 5.21932 16.6116 5.17948 16.3998 5.0579C16.1879 4.93631 16.0279 4.74138 15.9499 4.5099L15.3399 2.6799C15.2728 2.48127 15.145 2.30876 14.9745 2.18674C14.8041 2.06471 14.5995 1.99935 14.3899 1.9999H10.3899C10.1718 1.98851 9.95603 2.04882 9.77546 2.17161C9.59489 2.2944 9.45948 2.47291 9.3899 2.6799L8.8299 4.5099C8.7519 4.74138 8.59187 4.93631 8.38001 5.0579C8.16815 5.17948 7.91911 5.21932 7.6799 5.1699L5.7499 4.7899C5.55445 4.76228 5.3552 4.79312 5.17724 4.87853C4.99929 4.96395 4.8506 5.10012 4.7499 5.2699L2.7499 8.72989C2.64106 8.91054 2.59212 9.12098 2.61008 9.33112C2.62804 9.54126 2.71198 9.74034 2.8499 9.89989L4.1199 11.3399C4.28022 11.5224 4.36863 11.757 4.36863 11.9999C4.36863 12.2428 4.28022 12.4774 4.1199 12.6599L2.8499 14.0999C2.71198 14.2595 2.62804 14.4585 2.61008 14.6687C2.59212 14.8788 2.64106 15.0892 2.7499 15.2699L4.7499 18.7299C4.85499 18.9124 5.01502 19.057 5.20715 19.1432C5.39928 19.2294 5.61372 19.2527 5.8199 19.2099L7.6999 18.8299C7.93911 18.7805 8.18815 18.8203 8.40001 18.9419C8.61187 19.0635 8.7719 19.2584 8.8499 19.4899L9.4599 21.3199C9.52948 21.5269 9.66489 21.7054 9.84546 21.8282C10.026 21.951 10.2418 22.0113 10.4599 21.9999H14.4599C14.6695 22.0004 14.8741 21.9351 15.0445 21.8131C15.215 21.691 15.3428 21.5185 15.4099 21.3199L16.0199 19.4899C16.0979 19.2584 16.2579 19.0635 16.4698 18.9419C16.6816 18.8203 16.9307 18.7805 17.1699 18.8299L19.0499 19.2099C19.2561 19.2527 19.4705 19.2294 19.6626 19.1432C19.8548 19.057 20.0148 18.9124 20.1199 18.7299L22.1199 15.2699C22.2261 15.0872 22.2716 14.8756 22.2501 14.6654C22.2285 14.4552 22.1409 14.2572 21.9999 14.0999L20.6499 12.6599ZM19.1599 13.9999L19.9599 14.8999L18.6799 17.1199L17.4999 16.8799C16.7797 16.7327 16.0305 16.855 15.3945 17.2237C14.7585 17.5924 14.28 18.1817 14.0499 18.8799L13.6699 19.9999H11.1099L10.7499 18.8599C10.5198 18.1617 10.0413 17.5724 9.4053 17.2037C8.76932 16.835 8.02012 16.7127 7.2999 16.8599L6.1199 17.0999L4.8199 14.8899L5.6199 13.9899C6.11185 13.4399 6.38383 12.7278 6.38383 11.9899C6.38383 11.252 6.11185 10.5399 5.6199 9.98989L4.8199 9.0899L6.0999 6.88989L7.2799 7.1299C8.00012 7.27712 8.74932 7.15478 9.3853 6.78609C10.0213 6.41741 10.4998 5.82805 10.7299 5.1299L11.1099 3.9999H13.6699L14.0499 5.13989C14.28 5.83805 14.7585 6.42741 15.3945 6.79609C16.0305 7.16478 16.7797 7.28712 17.4999 7.13989L18.6799 6.8999L19.9599 9.11989L19.1599 10.0199C18.6735 10.5687 18.4049 11.2766 18.4049 12.0099C18.4049 12.7432 18.6735 13.4511 19.1599 13.9999ZM12.3899 7.9999C11.5988 7.9999 10.8254 8.23449 10.1676 8.67402C9.50982 9.11354 8.99713 9.73826 8.69438 10.4692C8.39163 11.2001 8.31241 12.0043 8.46675 12.7803C8.6211 13.5562 9.00206 14.2689 9.56147 14.8283C10.1209 15.3877 10.8336 15.7687 11.6095 15.923C12.3855 16.0774 13.1897 15.9982 13.9206 15.6954C14.6515 15.3927 15.2762 14.88 15.7158 14.2222C16.1553 13.5644 16.3899 12.791 16.3899 11.9999C16.3899 10.939 15.9685 9.92161 15.2183 9.17147C14.4682 8.42132 13.4508 7.9999 12.3899 7.9999ZM12.3899 13.9999C11.9943 13.9999 11.6077 13.8826 11.2788 13.6628C10.9499 13.4431 10.6935 13.1307 10.5421 12.7653C10.3908 12.3998 10.3512 11.9977 10.4283 11.6097C10.5055 11.2218 10.696 10.8654 10.9757 10.5857C11.2554 10.306 11.6118 10.1155 11.9997 10.0383C12.3877 9.96115 12.7898 10.0008 13.1553 10.1521C13.5207 10.3035 13.8331 10.5599 14.0528 10.8888C14.2726 11.2177 14.3899 11.6043 14.3899 11.9999C14.3899 12.5303 14.1792 13.039 13.8041 13.4141C13.429 13.7892 12.9203 13.9999 12.3899 13.9999Z" fill="#10B981"/>
</svg>
