<svg width="30" height="30" viewBox="0 0 30 30" fill="none" xmlns="http://www.w3.org/2000/svg">
<rect width="30" height="30" rx="4" fill="#10B981"/>
<path d="M18.75 22.5C18.125 22.5 17.5938 22.2812 17.1562 21.8438C16.7188 21.4062 16.5 20.875 16.5 20.25C16.5 20.175 16.5188 20 16.5562 19.725L11.2875 16.65C11.0875 16.8375 10.8563 16.9845 10.5938 17.091C10.3312 17.1975 10.05 17.2505 9.75 17.25C9.125 17.25 8.59375 17.0312 8.15625 16.5938C7.71875 16.1562 7.5 15.625 7.5 15C7.5 14.375 7.71875 13.8438 8.15625 13.4062C8.59375 12.9688 9.125 12.75 9.75 12.75C10.05 12.75 10.3312 12.8033 10.5938 12.9097C10.8563 13.0163 11.0875 13.163 11.2875 13.35L16.5562 10.275C16.5312 10.1875 16.5157 10.1033 16.5097 10.0222C16.5037 9.94125 16.5005 9.8505 16.5 9.75C16.5 9.125 16.7188 8.59375 17.1562 8.15625C17.5938 7.71875 18.125 7.5 18.75 7.5C19.375 7.5 19.9062 7.71875 20.3438 8.15625C20.7812 8.59375 21 9.125 21 9.75C21 10.375 20.7812 10.9062 20.3438 11.3438C19.9062 11.7812 19.375 12 18.75 12C18.45 12 18.1687 11.9468 17.9062 11.8403C17.6438 11.7338 17.4125 11.587 17.2125 11.4L11.9438 14.475C11.9688 14.5625 11.9845 14.647 11.991 14.7285C11.9975 14.81 12.0005 14.9005 12 15C11.9995 15.0995 11.9965 15.1902 11.991 15.2723C11.9855 15.3542 11.9697 15.4385 11.9438 15.525L17.2125 18.6C17.4125 18.4125 17.6438 18.2657 17.9062 18.1597C18.1687 18.0537 18.45 18.0005 18.75 18C19.375 18 19.9062 18.2188 20.3438 18.6562C20.7812 19.0938 21 19.625 21 20.25C21 20.875 20.7812 21.4062 20.3438 21.8438C19.9062 22.2812 19.375 22.5 18.75 22.5Z" fill="#FCFCFC"/>
</svg>
