<svg width="100" height="100" viewBox="0 0 100 100" xmlns="http://www.w3.org/2000/svg">
    <!-- Background Circle -->
    <circle cx="50" cy="50" r="45" fill="#2DD4BF" stroke="#14B8A6" stroke-width="2"/>

    <!-- Support/Chat Icon -->
    <g transform="translate(50, 50)">
        <!-- Main chat bubble -->
        <path d="M-18 -15 L18 -15 Q22 -15 22 -11 L22 5 Q22 9 18 9 L-8 9 L-16 16 L-16 9 L-18 9 Q-22 9 -22 5 L-22 -11 Q-22 -15 -18 -15 Z"
            fill="white" opacity="0.95"/>

        <!-- Question mark -->
        <g fill="#14B8A6">
            <!-- Question mark curve -->
            <path d="M-6 -8 Q-6 -12 -2 -12 Q2 -12 2 -8 Q2 -4 -2 -4 L-2 -1"
                stroke="#14B8A6" stroke-width="2.5" fill="none" stroke-linecap="round"/>
            <!-- Question mark dot -->
            <circle cx="-2" cy="2" r="1.5" fill="#14B8A6"/>
        </g>

        <!-- Secondary smaller bubble -->
        <circle cx="12" cy="-8" r="4" fill="white" opacity="0.8"/>
        <circle cx="12" cy="-8" r="1.5" fill="#14B8A6"/>
    </g>

    <!-- Decorative elements -->
    <circle cx="25" cy="25" r="2" fill="white" opacity="0.6"/>
    <circle cx="75" cy="30" r="1.5" fill="white" opacity="0.4"/>
    <circle cx="70" cy="75" r="2.5" fill="white" opacity="0.5"/>
</svg>