<svg width="100" height="100" viewBox="0 0 100 100" xmlns="http://www.w3.org/2000/svg">
    <!-- Background Circle -->
    <circle cx="50" cy="50" r="45" fill="#2DD4BF" stroke="#14B8A6" stroke-width="2"/>

    <!-- Support Register Icon -->
    <g transform="translate(50, 50)">
        <!-- Registration Form/Document -->
        <g fill="white" opacity="0.95">
            <!-- Main form background -->
            <rect x="-12" y="-16" width="24" height="28" rx="2" fill="white"/>

            <!-- Form lines -->
            <rect x="-8" y="-12" width="16" height="1.5" rx="0.5" fill="#E5E7EB"/>
            <rect x="-8" y="-8" width="12" height="1.5" rx="0.5" fill="#E5E7EB"/>
            <rect x="-8" y="-4" width="16" height="1.5" rx="0.5" fill="#E5E7EB"/>
            <rect x="-8" y="0" width="10" height="1.5" rx="0.5" fill="#E5E7EB"/>
            <rect x="-8" y="4" width="16" height="1.5" rx="0.5" fill="#E5E7EB"/>
        </g>

        <!-- Support/Help elements -->
        <g fill="#14B8A6">
            <!-- User icon in top right of form -->
            <circle cx="6" cy="-12" r="2.5" fill="#14B8A6"/>
            <path d="M2 -6 Q2 -8 6 -8 Q10 -8 10 -6 L10 -4 L2 -4 Z" fill="#14B8A6"/>

            <!-- Plus sign for registration -->
            <g transform="translate(-6, 2)">
                <rect x="-1" y="-4" width="2" height="8" rx="1" fill="#14B8A6"/>
                <rect x="-5" y="-1" width="10" height="2" rx="1" fill="#14B8A6"/>
            </g>

            <!-- Support chat bubble -->
            <g transform="translate(8, 8)">
                <circle cx="0" cy="0" r="4" fill="#14B8A6"/>
                <path d="M-2 -1 L0 1 L2 -1" stroke="white" stroke-width="1.5" fill="none" stroke-linecap="round"/>
            </g>
        </g>

        <!-- Pen/Edit icon -->
        <g transform="translate(10, -10)">
            <path d="M0 0 L3 -3 L5 -1 L2 2 L0 2 Z" fill="#14B8A6"/>
            <path d="M3 -3 L4 -4 L5 -3 L4 -2 Z" fill="#0F766E"/>
        </g>
    </g>

    <!-- Decorative elements -->
    <circle cx="25" cy="25" r="2" fill="white" opacity="0.6"/>
    <circle cx="75" cy="30" r="1.5" fill="white" opacity="0.4"/>
    <circle cx="70" cy="75" r="2.5" fill="white" opacity="0.5"/>
</svg>