<svg width="40" height="40" viewBox="0 0 40 40" fill="none" xmlns="http://www.w3.org/2000/svg">
<rect x="0.5" y="0.5" width="39" height="39" rx="3.5" stroke="#D00416"/>
<path d="M17.5 11H22.5C22.8978 11 23.2794 11.158 23.5607 11.4393C23.842 11.7206 24 12.1022 24 12.5C24 13.4283 23.6313 14.3185 22.9749 14.9749C22.3185 15.6313 21.4283 16 20.5 16H19.5C18.5717 16 17.6815 15.6313 17.0251 14.9749C16.3687 14.3185 16 13.4283 16 12.5C16 12.1022 16.158 11.7206 16.4393 11.4393C16.7206 11.158 17.1022 11 17.5 11Z" stroke="#D00416" stroke-width="2" stroke-linecap="round" stroke-linejoin="round"/>
<path d="M20.5 28.9999H16C14.9391 28.9999 13.9217 28.5784 13.1716 27.8283C12.4214 27.0781 12 26.0607 12 24.9999V23.9999C11.9988 21.9604 12.7766 19.9974 14.1743 18.5123C15.5721 17.0271 17.4843 16.1319 19.5202 16.0095C21.556 15.8872 23.5616 16.547 25.1272 17.8541C26.6927 19.1612 27.7 21.0169 27.943 23.0419M24 26.9999H30" stroke="#D00416" stroke-width="2" stroke-linecap="round" stroke-linejoin="round"/>
</svg>
