<svg width="24" height="24" viewBox="0 0 24 24" fill="none" xmlns="http://www.w3.org/2000/svg">
<g clip-path="url(#clip0_443_2327)">
<path fill-rule="evenodd" clip-rule="evenodd" d="M9.76518 1.07094L8.74968 1.81643C8.57076 1.95917 8.38121 2.08804 8.18268 2.20194C8.04898 2.27301 7.90886 2.33127 7.76418 2.37594C7.60068 2.42544 7.43118 2.45094 7.09068 2.50344L5.84568 2.69393C4.86318 2.84394 4.37118 2.92043 3.98568 3.14993C3.64068 3.35243 3.35418 3.64044 3.15018 3.98544C2.92068 4.37543 2.84568 4.86743 2.69418 5.84544L2.50368 7.09044C2.45118 7.43094 2.42568 7.60194 2.37618 7.76544C2.33118 7.91044 2.27318 8.04944 2.20218 8.18244C2.12118 8.33244 2.02068 8.47194 1.81668 8.74944L1.07118 9.76494C0.483179 10.5659 0.189179 10.9664 0.0751792 11.3999C-0.0231066 11.7873 -0.0231066 12.1931 0.0751792 12.5804C0.187679 13.0184 0.483179 13.4204 1.07118 14.2154L1.81668 15.2309C2.02068 15.5084 2.12268 15.6479 2.20218 15.7979C2.27218 15.9319 2.33018 16.0719 2.37618 16.2179C2.42568 16.3799 2.45118 16.5494 2.50368 16.8899L2.69418 18.1349C2.84418 19.1174 2.92068 19.6079 3.15018 19.9949C3.35268 20.3399 3.64068 20.6279 3.98568 20.8304C4.37568 21.0599 4.86768 21.1349 5.84568 21.2864L7.09068 21.4769C7.43118 21.5294 7.60218 21.5564 7.76418 21.6059C7.90918 21.6499 8.04868 21.7079 8.18268 21.7799C8.33268 21.8594 8.47218 21.9599 8.74968 22.1654L9.76518 22.9109C10.5662 23.4989 10.9667 23.7929 11.4002 23.9069C11.7872 24.0074 12.1937 24.0074 12.5807 23.9069C13.0187 23.7929 13.4207 23.4989 14.2157 22.9109L15.2312 22.1654C15.5087 21.9614 15.6482 21.8594 15.7982 21.7799C15.9322 21.7079 16.0717 21.6499 16.2167 21.6059C16.3802 21.5564 16.5497 21.5309 16.8902 21.4769L18.1352 21.2864C19.1177 21.1364 19.6082 21.0614 19.9952 20.8304C20.3402 20.6279 20.6282 20.3399 20.8307 19.9949C21.0602 19.6049 21.1352 19.1129 21.2867 18.1349L21.4772 16.8899C21.5297 16.5494 21.5552 16.3799 21.6047 16.2164C21.6497 16.0714 21.7077 15.9319 21.7787 15.7979C21.8597 15.6479 21.9602 15.5084 22.1642 15.2309L22.9097 14.2154C23.4977 13.4144 23.7917 13.0154 23.9057 12.5804C24.004 12.1931 24.004 11.7873 23.9057 11.3999C23.7932 10.9619 23.4977 10.5599 22.9097 9.76494L22.1642 8.74944C22.0214 8.57051 21.8926 8.38096 21.7787 8.18244C21.7076 8.04874 21.6493 7.90861 21.6047 7.76394C21.5451 7.543 21.5025 7.31785 21.4772 7.09044L21.2867 5.84544C21.1367 4.86294 21.0602 4.37093 20.8307 3.98544C20.6262 3.64166 20.339 3.35446 19.9952 3.14993C19.6052 2.92043 19.1132 2.84544 18.1352 2.69393L16.8902 2.50344C16.6628 2.47812 16.4376 2.4355 16.2167 2.37594C16.0717 2.33217 15.9315 2.27387 15.7982 2.20194C15.5996 2.08804 15.4101 1.95917 15.2312 1.81643L14.2157 1.07094C13.4147 0.482935 13.0142 0.188935 12.5807 0.074935C12.1933 -0.0233507 11.7875 -0.0233507 11.4002 0.074935C10.9622 0.188935 10.5602 0.482935 9.76518 1.07094ZM17.7602 9.18594C18.1262 8.73744 18.0512 8.08494 17.5952 7.72644C17.1392 7.36794 16.4717 7.44144 16.1072 7.88844L11.1422 13.9784L8.48718 11.9384C8.2703 11.7619 7.99305 11.6771 7.71454 11.702C7.43602 11.727 7.17825 11.8597 6.99618 12.0719C6.90723 12.176 6.84004 12.2969 6.79859 12.4274C6.75714 12.5579 6.74227 12.6954 6.75486 12.8317C6.76744 12.968 6.80723 13.1005 6.87187 13.2212C6.9365 13.3419 7.02468 13.4484 7.13118 13.5344L10.6112 16.2494C10.8309 16.4282 11.1125 16.5127 11.3944 16.4846C11.6762 16.4565 11.9355 16.3181 12.1157 16.0994L17.7557 9.16944L17.7602 9.18594Z" fill="#1F2937"/>
</g>
<defs>
<clipPath id="clip0_443_2327">
<rect width="24" height="24" fill="white"/>
</clipPath>
</defs>
</svg>
