<svg width="140" height="139" viewBox="0 0 140 139" fill="none" xmlns="http://www.w3.org/2000/svg">
<rect x="0.5" width="139" height="139" rx="69.5" fill="#FFDB43" fill-opacity="0.1"/>
<rect x="12.5" y="12" width="115" height="115" rx="57.5" fill="#FFDB43"/>
<path fill-rule="evenodd" clip-rule="evenodd" d="M33.207 69.5C33.207 59.7419 37.0834 50.3835 43.9834 43.4834C50.8835 36.5834 60.2419 32.707 70 32.707C79.7581 32.707 89.1165 36.5834 96.0166 43.4834C102.917 50.3835 106.793 59.7419 106.793 69.5C106.793 79.2581 102.917 88.6165 96.0166 95.5166C89.1165 102.417 79.7581 106.293 70 106.293C60.2419 106.293 50.8835 102.417 43.9834 95.5166C37.0834 88.6165 33.207 79.2581 33.207 69.5ZM70 37.9846C61.6416 37.9846 53.6255 41.305 47.7152 47.2152C41.805 53.1255 38.4846 61.1416 38.4846 69.5C38.4846 77.8584 41.805 85.8745 47.7152 91.7848C53.6255 97.695 61.6416 101.015 70 101.015C78.3584 101.015 86.3745 97.695 92.2848 91.7848C98.195 85.8745 101.515 77.8584 101.515 69.5C101.515 61.1416 98.195 53.1255 92.2848 47.2152C86.3745 41.305 78.3584 37.9846 70 37.9846ZM74.1665 86.166C74.1665 87.271 73.7275 88.3308 72.9462 89.1122C72.1648 89.8935 71.105 90.3325 70 90.3325C68.895 90.3325 67.8352 89.8935 67.0538 89.1122C66.2725 88.3308 65.8335 87.271 65.8335 86.166C65.8335 85.061 66.2725 84.0012 67.0538 83.2198C67.8352 82.4385 68.895 81.9995 70 81.9995C71.105 81.9995 72.1648 82.4385 72.9462 83.2198C73.7275 84.0012 74.1665 85.061 74.1665 86.166ZM61.9448 62.5558C61.9448 58.7893 65.1946 55.195 70 55.195C74.8054 55.195 78.0552 58.7893 78.0552 62.5558C78.0552 65.2835 76.5553 66.6779 73.9665 68.2501C73.6832 68.4278 73.3499 68.6167 72.9888 68.8278C71.9031 69.4275 70.8566 70.0955 69.8556 70.8277C68.5112 71.8721 66.9446 73.5665 66.9446 76.1664C66.9416 76.9768 67.2607 77.7551 67.8316 78.3302C68.4025 78.9053 69.1785 79.23 69.9889 79.2329C70.7992 79.2359 71.5776 78.9168 72.1527 78.3459C72.7278 77.775 73.0525 76.999 73.0554 76.1886C73.2106 75.9789 73.3981 75.7951 73.611 75.6442C74.1776 75.2053 74.8054 74.8442 75.6442 74.3554C76.0775 74.1054 76.572 73.8165 77.1442 73.4721C80.1107 71.6666 84.1661 68.6889 84.1661 62.5558C84.1661 55.2117 77.9719 49.0842 70 49.0842C62.0281 49.0842 55.8339 55.2117 55.8339 62.5558C55.8339 63.3662 56.1558 64.1434 56.7288 64.7164C57.3018 65.2894 58.079 65.6113 58.8893 65.6113C59.6997 65.6113 60.4769 65.2894 61.0499 64.7164C61.6229 64.1434 61.9448 63.3662 61.9448 62.5558Z" fill="#FCFCFC"/>
</svg>
